<svg width="180" height="42" viewBox="0 0 180 42" fill="none" xmlns="http://www.w3.org/2000/svg">
<circle cx="157" cy="23" r="19" fill="#1B34F5"/>
<path d="M164.2 19H161.96C162.36 18.6 162.6 18.04 162.6 17.4C162.6 16.04 161.56 15 160.2 15C159.4 15 157.96 15.72 157 16.68C156.04 15.72 154.6 15 153.8 15C152.44 15 151.4 16.04 151.4 17.4C151.4 18.04 151.64 18.6 152.04 19H149.8C149.32 19 149 19.32 149 19.8V22.04C149 22.12 149.08 22.2 149.16 22.2H155.88C156.04 22.2 156.2 22.04 156.2 21.88V19.32C156.2 19.16 156.36 19 156.52 19H157.48C157.64 19 157.8 19.16 157.8 19.32V21.88C157.8 22.04 157.96 22.2 158.12 22.2H164.84C164.92 22.2 165 22.12 165 22.04V19.8C165 19.32 164.68 19 164.2 19ZM153.8 18.2C153.32 18.2 153 17.88 153 17.4C153 16.92 153.32 16.6 153.8 16.6C154.28 16.6 155.72 17.56 156.12 18.04C155.88 18.12 153.8 18.2 153.8 18.2ZM160.2 18.2C160.2 18.2 158.12 18.12 157.88 18.04C158.36 17.48 159.72 16.6 160.2 16.6C160.68 16.6 161 16.92 161 17.4C161 17.88 160.68 18.2 160.2 18.2Z" fill="#8C9AFF"/>
<path d="M155.88 23.8H149.96C149.88 23.8 149.8 23.88 149.8 23.96V30.2C149.8 30.68 150.12 31 150.6 31H155.88C156.04 31 156.2 30.84 156.2 30.68V24.12C156.2 23.96 156.04 23.8 155.88 23.8Z" fill="#8C9AFF"/>
<path d="M164.04 23.8H158.12C157.96 23.8 157.8 23.96 157.8 24.12V30.68C157.8 30.84 157.96 31 158.12 31H163.4C163.88 31 164.2 30.68 164.2 30.2V23.96C164.2 23.88 164.12 23.8 164.04 23.8Z" fill="#8C9AFF"/>
<circle cx="172" cy="8" r="8" fill="#FF0000"/>
<path d="M171.413 6.06L169.851 7.435L168.916 6.357L171.457 4.212H172.997V12H171.413V6.06Z" fill="white"/>
<circle cx="111" cy="23" r="19" fill="#1B34F5"/>
<path fill-rule="evenodd" clip-rule="evenodd" d="M102 19.9231H119.231V31H102V19.9231ZM103.231 17.4615H118V18.6923H103.231V17.4615ZM104.462 15H116.769V16.2308H104.462V15Z" fill="#8C9AFF"/>
<circle cx="65" cy="23" r="19" fill="#1B34F5"/>
<path fill-rule="evenodd" clip-rule="evenodd" d="M72.7506 16.8979C70.751 14.4774 67.1729 14.3722 64.9628 16.5822C62.7528 14.3722 59.1747 14.4774 57.1751 16.8979C55.386 19.0027 55.7017 22.1599 57.7013 24.1594L64.2262 30.6843C64.6471 31.1052 65.2785 31.1052 65.6995 30.6843L72.2244 24.1594C74.2239 22.1599 74.5396 19.0027 72.7506 16.8979Z" fill="#8C9AFF"/>
<circle cx="19" cy="23" r="19" fill="#1B34F5"/>
<path d="M26.9826 22.0609L19.1565 14.2348C18.8435 13.9217 18.3739 13.9217 18.0609 14.2348L10.2348 22.0609C9.92174 22.3739 9.92174 22.8435 10.2348 23.1565C10.3913 23.313 10.5478 23.3913 10.7043 23.3913H11.6435V31.2174C11.6435 31.687 11.9565 32 12.4261 32H16.8087V26.7565C16.8087 26.287 17.1217 25.9739 17.5913 25.9739H19.4696C19.9391 25.9739 20.2522 26.287 20.2522 26.7565V32H24.6348C25.1043 32 25.4174 31.687 25.4174 31.2174V23.3913H26.4348C26.8261 23.313 27.1391 22.9217 27.1391 22.5304C27.2174 22.3739 27.1391 22.2174 26.9826 22.0609Z" fill="white"/>
</svg>
